<?xml version="1.0" encoding="utf-8"?>
<!-- Generator: Adobe Illustrator 19.1.0, SVG Export Plug-In . SVG Version: 6.00 Build 0)  -->
<svg version="1.1" id="Calque_1" xmlns="http://www.w3.org/2000/svg" xmlns:xlink="http://www.w3.org/1999/xlink" x="0px" y="0px"
	 viewBox="0 0 800 800" enable-background="new 0 0 800 800" xml:space="preserve">
<g>
	<polygon fill="#CFCFCF" points="316.1,308.1 209.1,345.7 296.7,356.1 	"/>
	<polygon fill="#CDCBCB" points="316.1,308.1 296.7,356.1 395.1,367.1 	"/>
	<polygon fill="#DFDFDF" points="395.1,286 281.5,273.1 316.1,308.1 	"/>
	<polygon fill="#BABABA" points="395.1,286 316.1,308.1 395.1,367.1 479.3,308.1 	"/>
	<polygon fill="#969596" points="479.3,308.1 586.4,345.7 492.3,356.1 	"/>
	<polygon fill="#A8AAA9" points="479.3,308.1 492.3,356.1 395.1,367.1 	"/>
	<polygon fill="#A8AAA9" points="395.1,286 513.9,273.1 479.3,308.1 	"/>
	<polygon fill="#868686" points="513.9,273.1 592.8,300.4 586.4,345.7 479.3,308.1 	"/>
	<polygon fill="#8C8C8D" points="513.9,273.1 539.9,266.4 592.8,300.4 	"/>
	<polygon fill="#7D7D7E" points="592.8,300.4 627.6,332.4 586.4,345.7 	"/>
	<polygon fill="#D6D6D6" points="363.7,475.9 296.7,356.1 209.1,345.7 	"/>
	<polygon fill="#DFDFDF" points="319.2,472.8 397.6,554.6 363.7,475.9 209.1,345.7 	"/>
	<polygon fill="#BABABA" points="397.6,554.6 431.6,475.9 395.1,367.1 363.7,475.9 	"/>
	<polygon fill="#DDDDDC" points="363.7,475.9 395.1,367.1 296.7,356.1 	"/>
	<polygon fill="#EFEEED" points="167.8,332.4 319.2,472.8 209.1,345.7 	"/>
	<polygon fill="#A2A1A1" points="431.6,475.9 492.3,356.1 586.4,345.7 	"/>
	<polygon fill="#A8AAA9" points="476.2,472.8 397.6,554.6 431.6,475.9 586.4,345.7 	"/>
	<polygon fill="#AFAFB0" points="431.6,475.9 395.1,367.1 492.3,356.1 	"/>
	<polygon fill="#989797" points="627.6,332.4 476.2,472.8 586.4,345.7 	"/>
	<polygon fill="#EFEEED" points="281.5,273.1 202.6,300.4 209,345.7 316.1,308.1 	"/>
	<polygon fill="#DFDFDF" points="281.5,273.1 255.5,266.4 202.6,300.4 	"/>
	<polygon fill="#DFDFDF" points="202.6,300.4 167.8,332.4 209,345.7 	"/>
	<polygon fill="#EFEEED" points="255.5,266.4 282,273.2 395.1,286.1 395.1,263 	"/>
	<polygon fill="#E2E1E1" points="395.1,263 395.1,244.6 316.6,253.2 255.5,266.4 	"/>
	<polygon fill="#CAC9C9" points="539.9,266.4 481.6,251.9 395.1,244.7 395.1,263 	"/>
	<polygon fill="#BABABA" points="395.1,263 395.1,286.1 513.9,273.1 539.9,266.4 	"/>
</g>
</svg>
